# xmcd
#
# Track frame offsets:
#	150
#	14515
#	34362
#	51392
#	69085
#	84740
#	102804
#	121575
#	135232
#	156525
#	168692
#	184970
#	202727
#	216255
#	230240
#
# Disc length: 3327 seconds
#
# Revision: 1
# Processed by: cddbd v1.5.1PL0 Copyright (c) Steve Scherf et al.
# Submitted via: audiograbber 1.83.01
#
DISCID=d40cfd0f
DTITLE=Various Artist - SC8247
DYEAR=1900
DGENRE=Karaoke
TTITLE0=Dan Seals - I'd Really Love To See Yoiu
TTITLE1=Garth Brooks - The Beaches Of Cheyenne
TTITLE2=Ricochet - What Do I Know
TTITLE3=Rich McCready - Hanging On
TTITLE4=Stephanie Bentley - Who's That Girl
TTITLE5=Chely Wright - The Love That We Lost
TTITLE6=Travis Tritt - Only You And You Alone
TTITLE7=Mandy Barnett - Now That's Alright With Me
TTITLE8=Pam Tillis - The River and The Highway
TTITLE9=Garth Brooks - It's Midnight Cinderella
TTITLE10=Billy Dean - Its What I Do
TTITLE11=MC Potts - Back When
TTITLE12=Dwight Yoakum - Gone
TTITLE13=Don Cox - I Never Met A Woman I Didn't Like
TTITLE14=Bobbie Cryner - Youd Think He'd Know Me Better
EXTD=
EXTT0=
EXTT1=
EXTT2=
EXTT3=
EXTT4=
EXTT5=
EXTT6=
EXTT7=
EXTT8=
EXTT9=
EXTT10=
EXTT11=
EXTT12=
EXTT13=
EXTT14=
PLAYORDER=
